<?xml version="1.0" encoding="UTF-8"?>
<svg xmlns="http://www.w3.org/2000/svg" xmlns:xlink="http://www.w3.org/1999/xlink" version="1.1" width="600px" height="600px"><defs><rect id="r0" width="16" height="16" fill="#000000"/></defs><rect x="0" y="0" width="600" height="600" fill="#fefefe"/><use x="68" y="68" xlink:href="#r0"/><use x="84" y="68" xlink:href="#r0"/><use x="100" y="68" xlink:href="#r0"/><use x="116" y="68" xlink:href="#r0"/><use x="132" y="68" xlink:href="#r0"/><use x="148" y="68" xlink:href="#r0"/><use x="164" y="68" xlink:href="#r0"/><use x="212" y="68" xlink:href="#r0"/><use x="276" y="68" xlink:href="#r0"/><use x="324" y="68" xlink:href="#r0"/><use x="340" y="68" xlink:href="#r0"/><use x="372" y="68" xlink:href="#r0"/><use x="420" y="68" xlink:href="#r0"/><use x="436" y="68" xlink:href="#r0"/><use x="452" y="68" xlink:href="#r0"/><use x="468" y="68" xlink:href="#r0"/><use x="484" y="68" xlink:href="#r0"/><use x="500" y="68" xlink:href="#r0"/><use x="516" y="68" xlink:href="#r0"/><use x="68" y="84" xlink:href="#r0"/><use x="164" y="84" xlink:href="#r0"/><use x="196" y="84" xlink:href="#r0"/><use x="212" y="84" xlink:href="#r0"/><use x="244" y="84" xlink:href="#r0"/><use x="260" y="84" xlink:href="#r0"/><use x="308" y="84" xlink:href="#r0"/><use x="340" y="84" xlink:href="#r0"/><use x="420" y="84" xlink:href="#r0"/><use x="516" y="84" xlink:href="#r0"/><use x="68" y="100" xlink:href="#r0"/><use x="100" y="100" xlink:href="#r0"/><use x="116" y="100" xlink:href="#r0"/><use x="132" y="100" xlink:href="#r0"/><use x="164" y="100" xlink:href="#r0"/><use x="212" y="100" xlink:href="#r0"/><use x="228" y="100" xlink:href="#r0"/><use x="244" y="100" xlink:href="#r0"/><use x="292" y="100" xlink:href="#r0"/><use x="324" y="100" xlink:href="#r0"/><use x="420" y="100" xlink:href="#r0"/><use x="452" y="100" xlink:href="#r0"/><use x="468" y="100" xlink:href="#r0"/><use x="484" y="100" xlink:href="#r0"/><use x="516" y="100" xlink:href="#r0"/><use x="68" y="116" xlink:href="#r0"/><use x="100" y="116" xlink:href="#r0"/><use x="116" y="116" xlink:href="#r0"/><use x="132" y="116" xlink:href="#r0"/><use x="164" y="116" xlink:href="#r0"/><use x="196" y="116" xlink:href="#r0"/><use x="212" y="116" xlink:href="#r0"/><use x="244" y="116" xlink:href="#r0"/><use x="276" y="116" xlink:href="#r0"/><use x="292" y="116" xlink:href="#r0"/><use x="308" y="116" xlink:href="#r0"/><use x="324" y="116" xlink:href="#r0"/><use x="340" y="116" xlink:href="#r0"/><use x="388" y="116" xlink:href="#r0"/><use x="420" y="116" xlink:href="#r0"/><use x="452" y="116" xlink:href="#r0"/><use x="468" y="116" xlink:href="#r0"/><use x="484" y="116" xlink:href="#r0"/><use x="516" y="116" xlink:href="#r0"/><use x="68" y="132" xlink:href="#r0"/><use x="100" y="132" xlink:href="#r0"/><use x="116" y="132" xlink:href="#r0"/><use x="132" y="132" xlink:href="#r0"/><use x="164" y="132" xlink:href="#r0"/><use x="228" y="132" xlink:href="#r0"/><use x="260" y="132" xlink:href="#r0"/><use x="324" y="132" xlink:href="#r0"/><use x="372" y="132" xlink:href="#r0"/><use x="388" y="132" xlink:href="#r0"/><use x="420" y="132" xlink:href="#r0"/><use x="452" y="132" xlink:href="#r0"/><use x="468" y="132" xlink:href="#r0"/><use x="484" y="132" xlink:href="#r0"/><use x="516" y="132" xlink:href="#r0"/><use x="68" y="148" xlink:href="#r0"/><use x="164" y="148" xlink:href="#r0"/><use x="196" y="148" xlink:href="#r0"/><use x="228" y="148" xlink:href="#r0"/><use x="276" y="148" xlink:href="#r0"/><use x="308" y="148" xlink:href="#r0"/><use x="324" y="148" xlink:href="#r0"/><use x="340" y="148" xlink:href="#r0"/><use x="420" y="148" xlink:href="#r0"/><use x="516" y="148" xlink:href="#r0"/><use x="68" y="164" xlink:href="#r0"/><use x="84" y="164" xlink:href="#r0"/><use x="100" y="164" xlink:href="#r0"/><use x="116" y="164" xlink:href="#r0"/><use x="132" y="164" xlink:href="#r0"/><use x="148" y="164" xlink:href="#r0"/><use x="164" y="164" xlink:href="#r0"/><use x="196" y="164" xlink:href="#r0"/><use x="228" y="164" xlink:href="#r0"/><use x="260" y="164" xlink:href="#r0"/><use x="292" y="164" xlink:href="#r0"/><use x="324" y="164" xlink:href="#r0"/><use x="356" y="164" xlink:href="#r0"/><use x="388" y="164" xlink:href="#r0"/><use x="420" y="164" xlink:href="#r0"/><use x="436" y="164" xlink:href="#r0"/><use x="452" y="164" xlink:href="#r0"/><use x="468" y="164" xlink:href="#r0"/><use x="484" y="164" xlink:href="#r0"/><use x="500" y="164" xlink:href="#r0"/><use x="516" y="164" xlink:href="#r0"/><use x="260" y="180" xlink:href="#r0"/><use x="292" y="180" xlink:href="#r0"/><use x="308" y="180" xlink:href="#r0"/><use x="324" y="180" xlink:href="#r0"/><use x="68" y="196" xlink:href="#r0"/><use x="84" y="196" xlink:href="#r0"/><use x="100" y="196" xlink:href="#r0"/><use x="116" y="196" xlink:href="#r0"/><use x="132" y="196" xlink:href="#r0"/><use x="164" y="196" xlink:href="#r0"/><use x="180" y="196" xlink:href="#r0"/><use x="196" y="196" xlink:href="#r0"/><use x="212" y="196" xlink:href="#r0"/><use x="228" y="196" xlink:href="#r0"/><use x="260" y="196" xlink:href="#r0"/><use x="276" y="196" xlink:href="#r0"/><use x="292" y="196" xlink:href="#r0"/><use x="308" y="196" xlink:href="#r0"/><use x="340" y="196" xlink:href="#r0"/><use x="388" y="196" xlink:href="#r0"/><use x="404" y="196" xlink:href="#r0"/><use x="436" y="196" xlink:href="#r0"/><use x="468" y="196" xlink:href="#r0"/><use x="500" y="196" xlink:href="#r0"/><use x="100" y="212" xlink:href="#r0"/><use x="116" y="212" xlink:href="#r0"/><use x="180" y="212" xlink:href="#r0"/><use x="196" y="212" xlink:href="#r0"/><use x="212" y="212" xlink:href="#r0"/><use x="324" y="212" xlink:href="#r0"/><use x="356" y="212" xlink:href="#r0"/><use x="372" y="212" xlink:href="#r0"/><use x="388" y="212" xlink:href="#r0"/><use x="404" y="212" xlink:href="#r0"/><use x="420" y="212" xlink:href="#r0"/><use x="436" y="212" xlink:href="#r0"/><use x="452" y="212" xlink:href="#r0"/><use x="516" y="212" xlink:href="#r0"/><use x="68" y="228" xlink:href="#r0"/><use x="100" y="228" xlink:href="#r0"/><use x="132" y="228" xlink:href="#r0"/><use x="164" y="228" xlink:href="#r0"/><use x="196" y="228" xlink:href="#r0"/><use x="212" y="228" xlink:href="#r0"/><use x="244" y="228" xlink:href="#r0"/><use x="260" y="228" xlink:href="#r0"/><use x="292" y="228" xlink:href="#r0"/><use x="308" y="228" xlink:href="#r0"/><use x="388" y="228" xlink:href="#r0"/><use x="420" y="228" xlink:href="#r0"/><use x="452" y="228" xlink:href="#r0"/><use x="84" y="244" xlink:href="#r0"/><use x="116" y="244" xlink:href="#r0"/><use x="148" y="244" xlink:href="#r0"/><use x="180" y="244" xlink:href="#r0"/><use x="212" y="244" xlink:href="#r0"/><use x="228" y="244" xlink:href="#r0"/><use x="244" y="244" xlink:href="#r0"/><use x="292" y="244" xlink:href="#r0"/><use x="308" y="244" xlink:href="#r0"/><use x="324" y="244" xlink:href="#r0"/><use x="436" y="244" xlink:href="#r0"/><use x="452" y="244" xlink:href="#r0"/><use x="500" y="244" xlink:href="#r0"/><use x="68" y="260" xlink:href="#r0"/><use x="84" y="260" xlink:href="#r0"/><use x="100" y="260" xlink:href="#r0"/><use x="164" y="260" xlink:href="#r0"/><use x="180" y="260" xlink:href="#r0"/><use x="196" y="260" xlink:href="#r0"/><use x="212" y="260" xlink:href="#r0"/><use x="244" y="260" xlink:href="#r0"/><use x="260" y="260" xlink:href="#r0"/><use x="292" y="260" xlink:href="#r0"/><use x="308" y="260" xlink:href="#r0"/><use x="340" y="260" xlink:href="#r0"/><use x="436" y="260" xlink:href="#r0"/><use x="468" y="260" xlink:href="#r0"/><use x="484" y="260" xlink:href="#r0"/><use x="68" y="276" xlink:href="#r0"/><use x="116" y="276" xlink:href="#r0"/><use x="180" y="276" xlink:href="#r0"/><use x="212" y="276" xlink:href="#r0"/><use x="228" y="276" xlink:href="#r0"/><use x="260" y="276" xlink:href="#r0"/><use x="276" y="276" xlink:href="#r0"/><use x="324" y="276" xlink:href="#r0"/><use x="340" y="276" xlink:href="#r0"/><use x="356" y="276" xlink:href="#r0"/><use x="372" y="276" xlink:href="#r0"/><use x="388" y="276" xlink:href="#r0"/><use x="404" y="276" xlink:href="#r0"/><use x="420" y="276" xlink:href="#r0"/><use x="436" y="276" xlink:href="#r0"/><use x="452" y="276" xlink:href="#r0"/><use x="484" y="276" xlink:href="#r0"/><use x="516" y="276" xlink:href="#r0"/><use x="84" y="292" xlink:href="#r0"/><use x="116" y="292" xlink:href="#r0"/><use x="132" y="292" xlink:href="#r0"/><use x="148" y="292" xlink:href="#r0"/><use x="164" y="292" xlink:href="#r0"/><use x="196" y="292" xlink:href="#r0"/><use x="212" y="292" xlink:href="#r0"/><use x="228" y="292" xlink:href="#r0"/><use x="260" y="292" xlink:href="#r0"/><use x="308" y="292" xlink:href="#r0"/><use x="356" y="292" xlink:href="#r0"/><use x="404" y="292" xlink:href="#r0"/><use x="420" y="292" xlink:href="#r0"/><use x="484" y="292" xlink:href="#r0"/><use x="84" y="308" xlink:href="#r0"/><use x="100" y="308" xlink:href="#r0"/><use x="132" y="308" xlink:href="#r0"/><use x="196" y="308" xlink:href="#r0"/><use x="212" y="308" xlink:href="#r0"/><use x="228" y="308" xlink:href="#r0"/><use x="260" y="308" xlink:href="#r0"/><use x="292" y="308" xlink:href="#r0"/><use x="324" y="308" xlink:href="#r0"/><use x="372" y="308" xlink:href="#r0"/><use x="388" y="308" xlink:href="#r0"/><use x="452" y="308" xlink:href="#r0"/><use x="500" y="308" xlink:href="#r0"/><use x="84" y="324" xlink:href="#r0"/><use x="100" y="324" xlink:href="#r0"/><use x="116" y="324" xlink:href="#r0"/><use x="148" y="324" xlink:href="#r0"/><use x="164" y="324" xlink:href="#r0"/><use x="212" y="324" xlink:href="#r0"/><use x="244" y="324" xlink:href="#r0"/><use x="276" y="324" xlink:href="#r0"/><use x="292" y="324" xlink:href="#r0"/><use x="308" y="324" xlink:href="#r0"/><use x="340" y="324" xlink:href="#r0"/><use x="372" y="324" xlink:href="#r0"/><use x="436" y="324" xlink:href="#r0"/><use x="484" y="324" xlink:href="#r0"/><use x="68" y="340" xlink:href="#r0"/><use x="84" y="340" xlink:href="#r0"/><use x="116" y="340" xlink:href="#r0"/><use x="196" y="340" xlink:href="#r0"/><use x="212" y="340" xlink:href="#r0"/><use x="244" y="340" xlink:href="#r0"/><use x="260" y="340" xlink:href="#r0"/><use x="356" y="340" xlink:href="#r0"/><use x="372" y="340" xlink:href="#r0"/><use x="420" y="340" xlink:href="#r0"/><use x="436" y="340" xlink:href="#r0"/><use x="452" y="340" xlink:href="#r0"/><use x="468" y="340" xlink:href="#r0"/><use x="484" y="340" xlink:href="#r0"/><use x="516" y="340" xlink:href="#r0"/><use x="68" y="356" xlink:href="#r0"/><use x="100" y="356" xlink:href="#r0"/><use x="116" y="356" xlink:href="#r0"/><use x="132" y="356" xlink:href="#r0"/><use x="148" y="356" xlink:href="#r0"/><use x="164" y="356" xlink:href="#r0"/><use x="196" y="356" xlink:href="#r0"/><use x="228" y="356" xlink:href="#r0"/><use x="292" y="356" xlink:href="#r0"/><use x="308" y="356" xlink:href="#r0"/><use x="324" y="356" xlink:href="#r0"/><use x="340" y="356" xlink:href="#r0"/><use x="404" y="356" xlink:href="#r0"/><use x="436" y="356" xlink:href="#r0"/><use x="452" y="356" xlink:href="#r0"/><use x="468" y="356" xlink:href="#r0"/><use x="484" y="356" xlink:href="#r0"/><use x="68" y="372" xlink:href="#r0"/><use x="148" y="372" xlink:href="#r0"/><use x="212" y="372" xlink:href="#r0"/><use x="308" y="372" xlink:href="#r0"/><use x="324" y="372" xlink:href="#r0"/><use x="372" y="372" xlink:href="#r0"/><use x="404" y="372" xlink:href="#r0"/><use x="420" y="372" xlink:href="#r0"/><use x="452" y="372" xlink:href="#r0"/><use x="500" y="372" xlink:href="#r0"/><use x="68" y="388" xlink:href="#r0"/><use x="148" y="388" xlink:href="#r0"/><use x="164" y="388" xlink:href="#r0"/><use x="180" y="388" xlink:href="#r0"/><use x="212" y="388" xlink:href="#r0"/><use x="276" y="388" xlink:href="#r0"/><use x="308" y="388" xlink:href="#r0"/><use x="324" y="388" xlink:href="#r0"/><use x="340" y="388" xlink:href="#r0"/><use x="388" y="388" xlink:href="#r0"/><use x="404" y="388" xlink:href="#r0"/><use x="420" y="388" xlink:href="#r0"/><use x="436" y="388" xlink:href="#r0"/><use x="452" y="388" xlink:href="#r0"/><use x="484" y="388" xlink:href="#r0"/><use x="500" y="388" xlink:href="#r0"/><use x="516" y="388" xlink:href="#r0"/><use x="196" y="404" xlink:href="#r0"/><use x="244" y="404" xlink:href="#r0"/><use x="260" y="404" xlink:href="#r0"/><use x="276" y="404" xlink:href="#r0"/><use x="292" y="404" xlink:href="#r0"/><use x="340" y="404" xlink:href="#r0"/><use x="356" y="404" xlink:href="#r0"/><use x="372" y="404" xlink:href="#r0"/><use x="388" y="404" xlink:href="#r0"/><use x="452" y="404" xlink:href="#r0"/><use x="468" y="404" xlink:href="#r0"/><use x="484" y="404" xlink:href="#r0"/><use x="500" y="404" xlink:href="#r0"/><use x="516" y="404" xlink:href="#r0"/><use x="68" y="420" xlink:href="#r0"/><use x="84" y="420" xlink:href="#r0"/><use x="100" y="420" xlink:href="#r0"/><use x="116" y="420" xlink:href="#r0"/><use x="132" y="420" xlink:href="#r0"/><use x="148" y="420" xlink:href="#r0"/><use x="164" y="420" xlink:href="#r0"/><use x="196" y="420" xlink:href="#r0"/><use x="212" y="420" xlink:href="#r0"/><use x="260" y="420" xlink:href="#r0"/><use x="292" y="420" xlink:href="#r0"/><use x="308" y="420" xlink:href="#r0"/><use x="324" y="420" xlink:href="#r0"/><use x="356" y="420" xlink:href="#r0"/><use x="372" y="420" xlink:href="#r0"/><use x="388" y="420" xlink:href="#r0"/><use x="420" y="420" xlink:href="#r0"/><use x="452" y="420" xlink:href="#r0"/><use x="468" y="420" xlink:href="#r0"/><use x="484" y="420" xlink:href="#r0"/><use x="68" y="436" xlink:href="#r0"/><use x="164" y="436" xlink:href="#r0"/><use x="228" y="436" xlink:href="#r0"/><use x="244" y="436" xlink:href="#r0"/><use x="260" y="436" xlink:href="#r0"/><use x="292" y="436" xlink:href="#r0"/><use x="324" y="436" xlink:href="#r0"/><use x="356" y="436" xlink:href="#r0"/><use x="372" y="436" xlink:href="#r0"/><use x="388" y="436" xlink:href="#r0"/><use x="452" y="436" xlink:href="#r0"/><use x="468" y="436" xlink:href="#r0"/><use x="516" y="436" xlink:href="#r0"/><use x="68" y="452" xlink:href="#r0"/><use x="100" y="452" xlink:href="#r0"/><use x="116" y="452" xlink:href="#r0"/><use x="132" y="452" xlink:href="#r0"/><use x="164" y="452" xlink:href="#r0"/><use x="196" y="452" xlink:href="#r0"/><use x="212" y="452" xlink:href="#r0"/><use x="228" y="452" xlink:href="#r0"/><use x="276" y="452" xlink:href="#r0"/><use x="308" y="452" xlink:href="#r0"/><use x="324" y="452" xlink:href="#r0"/><use x="340" y="452" xlink:href="#r0"/><use x="388" y="452" xlink:href="#r0"/><use x="404" y="452" xlink:href="#r0"/><use x="420" y="452" xlink:href="#r0"/><use x="436" y="452" xlink:href="#r0"/><use x="452" y="452" xlink:href="#r0"/><use x="468" y="452" xlink:href="#r0"/><use x="484" y="452" xlink:href="#r0"/><use x="516" y="452" xlink:href="#r0"/><use x="68" y="468" xlink:href="#r0"/><use x="100" y="468" xlink:href="#r0"/><use x="116" y="468" xlink:href="#r0"/><use x="132" y="468" xlink:href="#r0"/><use x="164" y="468" xlink:href="#r0"/><use x="196" y="468" xlink:href="#r0"/><use x="244" y="468" xlink:href="#r0"/><use x="260" y="468" xlink:href="#r0"/><use x="292" y="468" xlink:href="#r0"/><use x="372" y="468" xlink:href="#r0"/><use x="388" y="468" xlink:href="#r0"/><use x="500" y="468" xlink:href="#r0"/><use x="516" y="468" xlink:href="#r0"/><use x="68" y="484" xlink:href="#r0"/><use x="100" y="484" xlink:href="#r0"/><use x="116" y="484" xlink:href="#r0"/><use x="132" y="484" xlink:href="#r0"/><use x="164" y="484" xlink:href="#r0"/><use x="196" y="484" xlink:href="#r0"/><use x="212" y="484" xlink:href="#r0"/><use x="276" y="484" xlink:href="#r0"/><use x="292" y="484" xlink:href="#r0"/><use x="308" y="484" xlink:href="#r0"/><use x="324" y="484" xlink:href="#r0"/><use x="372" y="484" xlink:href="#r0"/><use x="388" y="484" xlink:href="#r0"/><use x="420" y="484" xlink:href="#r0"/><use x="436" y="484" xlink:href="#r0"/><use x="452" y="484" xlink:href="#r0"/><use x="468" y="484" xlink:href="#r0"/><use x="484" y="484" xlink:href="#r0"/><use x="500" y="484" xlink:href="#r0"/><use x="68" y="500" xlink:href="#r0"/><use x="164" y="500" xlink:href="#r0"/><use x="196" y="500" xlink:href="#r0"/><use x="228" y="500" xlink:href="#r0"/><use x="308" y="500" xlink:href="#r0"/><use x="324" y="500" xlink:href="#r0"/><use x="356" y="500" xlink:href="#r0"/><use x="388" y="500" xlink:href="#r0"/><use x="404" y="500" xlink:href="#r0"/><use x="436" y="500" xlink:href="#r0"/><use x="452" y="500" xlink:href="#r0"/><use x="468" y="500" xlink:href="#r0"/><use x="500" y="500" xlink:href="#r0"/><use x="68" y="516" xlink:href="#r0"/><use x="84" y="516" xlink:href="#r0"/><use x="100" y="516" xlink:href="#r0"/><use x="116" y="516" xlink:href="#r0"/><use x="132" y="516" xlink:href="#r0"/><use x="148" y="516" xlink:href="#r0"/><use x="164" y="516" xlink:href="#r0"/><use x="196" y="516" xlink:href="#r0"/><use x="276" y="516" xlink:href="#r0"/><use x="324" y="516" xlink:href="#r0"/><use x="340" y="516" xlink:href="#r0"/><use x="356" y="516" xlink:href="#r0"/><use x="372" y="516" xlink:href="#r0"/><use x="404" y="516" xlink:href="#r0"/><use x="420" y="516" xlink:href="#r0"/><use x="436" y="516" xlink:href="#r0"/><use x="484" y="516" xlink:href="#r0"/></svg>
