<?xml version="1.0" encoding="UTF-8"?>
<svg xmlns="http://www.w3.org/2000/svg" xmlns:xlink="http://www.w3.org/1999/xlink" version="1.1" width="600px" height="600px"><defs><rect id="r0" width="18" height="18" fill="#000000"/></defs><rect x="0" y="0" width="600" height="600" fill="#fefefe"/><use x="75" y="75" xlink:href="#r0"/><use x="93" y="75" xlink:href="#r0"/><use x="111" y="75" xlink:href="#r0"/><use x="129" y="75" xlink:href="#r0"/><use x="147" y="75" xlink:href="#r0"/><use x="165" y="75" xlink:href="#r0"/><use x="183" y="75" xlink:href="#r0"/><use x="237" y="75" xlink:href="#r0"/><use x="255" y="75" xlink:href="#r0"/><use x="273" y="75" xlink:href="#r0"/><use x="309" y="75" xlink:href="#r0"/><use x="399" y="75" xlink:href="#r0"/><use x="417" y="75" xlink:href="#r0"/><use x="435" y="75" xlink:href="#r0"/><use x="453" y="75" xlink:href="#r0"/><use x="471" y="75" xlink:href="#r0"/><use x="489" y="75" xlink:href="#r0"/><use x="507" y="75" xlink:href="#r0"/><use x="75" y="93" xlink:href="#r0"/><use x="183" y="93" xlink:href="#r0"/><use x="273" y="93" xlink:href="#r0"/><use x="291" y="93" xlink:href="#r0"/><use x="309" y="93" xlink:href="#r0"/><use x="363" y="93" xlink:href="#r0"/><use x="399" y="93" xlink:href="#r0"/><use x="507" y="93" xlink:href="#r0"/><use x="75" y="111" xlink:href="#r0"/><use x="111" y="111" xlink:href="#r0"/><use x="129" y="111" xlink:href="#r0"/><use x="147" y="111" xlink:href="#r0"/><use x="183" y="111" xlink:href="#r0"/><use x="237" y="111" xlink:href="#r0"/><use x="255" y="111" xlink:href="#r0"/><use x="273" y="111" xlink:href="#r0"/><use x="363" y="111" xlink:href="#r0"/><use x="399" y="111" xlink:href="#r0"/><use x="435" y="111" xlink:href="#r0"/><use x="453" y="111" xlink:href="#r0"/><use x="471" y="111" xlink:href="#r0"/><use x="507" y="111" xlink:href="#r0"/><use x="75" y="129" xlink:href="#r0"/><use x="111" y="129" xlink:href="#r0"/><use x="129" y="129" xlink:href="#r0"/><use x="147" y="129" xlink:href="#r0"/><use x="183" y="129" xlink:href="#r0"/><use x="219" y="129" xlink:href="#r0"/><use x="255" y="129" xlink:href="#r0"/><use x="273" y="129" xlink:href="#r0"/><use x="291" y="129" xlink:href="#r0"/><use x="309" y="129" xlink:href="#r0"/><use x="327" y="129" xlink:href="#r0"/><use x="345" y="129" xlink:href="#r0"/><use x="363" y="129" xlink:href="#r0"/><use x="399" y="129" xlink:href="#r0"/><use x="435" y="129" xlink:href="#r0"/><use x="453" y="129" xlink:href="#r0"/><use x="471" y="129" xlink:href="#r0"/><use x="507" y="129" xlink:href="#r0"/><use x="75" y="147" xlink:href="#r0"/><use x="111" y="147" xlink:href="#r0"/><use x="129" y="147" xlink:href="#r0"/><use x="147" y="147" xlink:href="#r0"/><use x="183" y="147" xlink:href="#r0"/><use x="219" y="147" xlink:href="#r0"/><use x="255" y="147" xlink:href="#r0"/><use x="291" y="147" xlink:href="#r0"/><use x="309" y="147" xlink:href="#r0"/><use x="363" y="147" xlink:href="#r0"/><use x="399" y="147" xlink:href="#r0"/><use x="435" y="147" xlink:href="#r0"/><use x="453" y="147" xlink:href="#r0"/><use x="471" y="147" xlink:href="#r0"/><use x="507" y="147" xlink:href="#r0"/><use x="75" y="165" xlink:href="#r0"/><use x="183" y="165" xlink:href="#r0"/><use x="237" y="165" xlink:href="#r0"/><use x="255" y="165" xlink:href="#r0"/><use x="309" y="165" xlink:href="#r0"/><use x="327" y="165" xlink:href="#r0"/><use x="399" y="165" xlink:href="#r0"/><use x="507" y="165" xlink:href="#r0"/><use x="75" y="183" xlink:href="#r0"/><use x="93" y="183" xlink:href="#r0"/><use x="111" y="183" xlink:href="#r0"/><use x="129" y="183" xlink:href="#r0"/><use x="147" y="183" xlink:href="#r0"/><use x="165" y="183" xlink:href="#r0"/><use x="183" y="183" xlink:href="#r0"/><use x="219" y="183" xlink:href="#r0"/><use x="255" y="183" xlink:href="#r0"/><use x="291" y="183" xlink:href="#r0"/><use x="327" y="183" xlink:href="#r0"/><use x="363" y="183" xlink:href="#r0"/><use x="399" y="183" xlink:href="#r0"/><use x="417" y="183" xlink:href="#r0"/><use x="435" y="183" xlink:href="#r0"/><use x="453" y="183" xlink:href="#r0"/><use x="471" y="183" xlink:href="#r0"/><use x="489" y="183" xlink:href="#r0"/><use x="507" y="183" xlink:href="#r0"/><use x="237" y="201" xlink:href="#r0"/><use x="273" y="201" xlink:href="#r0"/><use x="291" y="201" xlink:href="#r0"/><use x="345" y="201" xlink:href="#r0"/><use x="75" y="219" xlink:href="#r0"/><use x="93" y="219" xlink:href="#r0"/><use x="165" y="219" xlink:href="#r0"/><use x="183" y="219" xlink:href="#r0"/><use x="201" y="219" xlink:href="#r0"/><use x="237" y="219" xlink:href="#r0"/><use x="255" y="219" xlink:href="#r0"/><use x="309" y="219" xlink:href="#r0"/><use x="327" y="219" xlink:href="#r0"/><use x="345" y="219" xlink:href="#r0"/><use x="363" y="219" xlink:href="#r0"/><use x="435" y="219" xlink:href="#r0"/><use x="453" y="219" xlink:href="#r0"/><use x="147" y="237" xlink:href="#r0"/><use x="219" y="237" xlink:href="#r0"/><use x="255" y="237" xlink:href="#r0"/><use x="273" y="237" xlink:href="#r0"/><use x="327" y="237" xlink:href="#r0"/><use x="345" y="237" xlink:href="#r0"/><use x="417" y="237" xlink:href="#r0"/><use x="435" y="237" xlink:href="#r0"/><use x="453" y="237" xlink:href="#r0"/><use x="471" y="237" xlink:href="#r0"/><use x="489" y="237" xlink:href="#r0"/><use x="75" y="255" xlink:href="#r0"/><use x="93" y="255" xlink:href="#r0"/><use x="111" y="255" xlink:href="#r0"/><use x="165" y="255" xlink:href="#r0"/><use x="183" y="255" xlink:href="#r0"/><use x="237" y="255" xlink:href="#r0"/><use x="291" y="255" xlink:href="#r0"/><use x="345" y="255" xlink:href="#r0"/><use x="399" y="255" xlink:href="#r0"/><use x="417" y="255" xlink:href="#r0"/><use x="453" y="255" xlink:href="#r0"/><use x="489" y="255" xlink:href="#r0"/><use x="507" y="255" xlink:href="#r0"/><use x="75" y="273" xlink:href="#r0"/><use x="93" y="273" xlink:href="#r0"/><use x="147" y="273" xlink:href="#r0"/><use x="165" y="273" xlink:href="#r0"/><use x="255" y="273" xlink:href="#r0"/><use x="273" y="273" xlink:href="#r0"/><use x="291" y="273" xlink:href="#r0"/><use x="327" y="273" xlink:href="#r0"/><use x="345" y="273" xlink:href="#r0"/><use x="381" y="273" xlink:href="#r0"/><use x="399" y="273" xlink:href="#r0"/><use x="417" y="273" xlink:href="#r0"/><use x="435" y="273" xlink:href="#r0"/><use x="453" y="273" xlink:href="#r0"/><use x="507" y="273" xlink:href="#r0"/><use x="75" y="291" xlink:href="#r0"/><use x="111" y="291" xlink:href="#r0"/><use x="183" y="291" xlink:href="#r0"/><use x="219" y="291" xlink:href="#r0"/><use x="237" y="291" xlink:href="#r0"/><use x="255" y="291" xlink:href="#r0"/><use x="273" y="291" xlink:href="#r0"/><use x="345" y="291" xlink:href="#r0"/><use x="399" y="291" xlink:href="#r0"/><use x="417" y="291" xlink:href="#r0"/><use x="507" y="291" xlink:href="#r0"/><use x="75" y="309" xlink:href="#r0"/><use x="93" y="309" xlink:href="#r0"/><use x="111" y="309" xlink:href="#r0"/><use x="147" y="309" xlink:href="#r0"/><use x="165" y="309" xlink:href="#r0"/><use x="201" y="309" xlink:href="#r0"/><use x="255" y="309" xlink:href="#r0"/><use x="273" y="309" xlink:href="#r0"/><use x="327" y="309" xlink:href="#r0"/><use x="345" y="309" xlink:href="#r0"/><use x="363" y="309" xlink:href="#r0"/><use x="381" y="309" xlink:href="#r0"/><use x="417" y="309" xlink:href="#r0"/><use x="489" y="309" xlink:href="#r0"/><use x="75" y="327" xlink:href="#r0"/><use x="183" y="327" xlink:href="#r0"/><use x="201" y="327" xlink:href="#r0"/><use x="237" y="327" xlink:href="#r0"/><use x="345" y="327" xlink:href="#r0"/><use x="363" y="327" xlink:href="#r0"/><use x="399" y="327" xlink:href="#r0"/><use x="417" y="327" xlink:href="#r0"/><use x="435" y="327" xlink:href="#r0"/><use x="453" y="327" xlink:href="#r0"/><use x="489" y="327" xlink:href="#r0"/><use x="507" y="327" xlink:href="#r0"/><use x="75" y="345" xlink:href="#r0"/><use x="111" y="345" xlink:href="#r0"/><use x="129" y="345" xlink:href="#r0"/><use x="147" y="345" xlink:href="#r0"/><use x="165" y="345" xlink:href="#r0"/><use x="201" y="345" xlink:href="#r0"/><use x="219" y="345" xlink:href="#r0"/><use x="327" y="345" xlink:href="#r0"/><use x="363" y="345" xlink:href="#r0"/><use x="435" y="345" xlink:href="#r0"/><use x="471" y="345" xlink:href="#r0"/><use x="507" y="345" xlink:href="#r0"/><use x="75" y="363" xlink:href="#r0"/><use x="111" y="363" xlink:href="#r0"/><use x="129" y="363" xlink:href="#r0"/><use x="165" y="363" xlink:href="#r0"/><use x="183" y="363" xlink:href="#r0"/><use x="201" y="363" xlink:href="#r0"/><use x="219" y="363" xlink:href="#r0"/><use x="237" y="363" xlink:href="#r0"/><use x="255" y="363" xlink:href="#r0"/><use x="291" y="363" xlink:href="#r0"/><use x="309" y="363" xlink:href="#r0"/><use x="327" y="363" xlink:href="#r0"/><use x="363" y="363" xlink:href="#r0"/><use x="381" y="363" xlink:href="#r0"/><use x="399" y="363" xlink:href="#r0"/><use x="417" y="363" xlink:href="#r0"/><use x="435" y="363" xlink:href="#r0"/><use x="471" y="363" xlink:href="#r0"/><use x="219" y="381" xlink:href="#r0"/><use x="255" y="381" xlink:href="#r0"/><use x="273" y="381" xlink:href="#r0"/><use x="327" y="381" xlink:href="#r0"/><use x="363" y="381" xlink:href="#r0"/><use x="435" y="381" xlink:href="#r0"/><use x="471" y="381" xlink:href="#r0"/><use x="75" y="399" xlink:href="#r0"/><use x="93" y="399" xlink:href="#r0"/><use x="111" y="399" xlink:href="#r0"/><use x="129" y="399" xlink:href="#r0"/><use x="147" y="399" xlink:href="#r0"/><use x="165" y="399" xlink:href="#r0"/><use x="183" y="399" xlink:href="#r0"/><use x="219" y="399" xlink:href="#r0"/><use x="255" y="399" xlink:href="#r0"/><use x="273" y="399" xlink:href="#r0"/><use x="309" y="399" xlink:href="#r0"/><use x="327" y="399" xlink:href="#r0"/><use x="363" y="399" xlink:href="#r0"/><use x="399" y="399" xlink:href="#r0"/><use x="435" y="399" xlink:href="#r0"/><use x="453" y="399" xlink:href="#r0"/><use x="507" y="399" xlink:href="#r0"/><use x="75" y="417" xlink:href="#r0"/><use x="183" y="417" xlink:href="#r0"/><use x="219" y="417" xlink:href="#r0"/><use x="237" y="417" xlink:href="#r0"/><use x="273" y="417" xlink:href="#r0"/><use x="291" y="417" xlink:href="#r0"/><use x="345" y="417" xlink:href="#r0"/><use x="363" y="417" xlink:href="#r0"/><use x="435" y="417" xlink:href="#r0"/><use x="507" y="417" xlink:href="#r0"/><use x="75" y="435" xlink:href="#r0"/><use x="111" y="435" xlink:href="#r0"/><use x="129" y="435" xlink:href="#r0"/><use x="147" y="435" xlink:href="#r0"/><use x="183" y="435" xlink:href="#r0"/><use x="237" y="435" xlink:href="#r0"/><use x="309" y="435" xlink:href="#r0"/><use x="345" y="435" xlink:href="#r0"/><use x="363" y="435" xlink:href="#r0"/><use x="381" y="435" xlink:href="#r0"/><use x="399" y="435" xlink:href="#r0"/><use x="417" y="435" xlink:href="#r0"/><use x="435" y="435" xlink:href="#r0"/><use x="453" y="435" xlink:href="#r0"/><use x="471" y="435" xlink:href="#r0"/><use x="489" y="435" xlink:href="#r0"/><use x="75" y="453" xlink:href="#r0"/><use x="111" y="453" xlink:href="#r0"/><use x="129" y="453" xlink:href="#r0"/><use x="147" y="453" xlink:href="#r0"/><use x="183" y="453" xlink:href="#r0"/><use x="255" y="453" xlink:href="#r0"/><use x="273" y="453" xlink:href="#r0"/><use x="309" y="453" xlink:href="#r0"/><use x="327" y="453" xlink:href="#r0"/><use x="345" y="453" xlink:href="#r0"/><use x="363" y="453" xlink:href="#r0"/><use x="381" y="453" xlink:href="#r0"/><use x="399" y="453" xlink:href="#r0"/><use x="417" y="453" xlink:href="#r0"/><use x="453" y="453" xlink:href="#r0"/><use x="489" y="453" xlink:href="#r0"/><use x="507" y="453" xlink:href="#r0"/><use x="75" y="471" xlink:href="#r0"/><use x="111" y="471" xlink:href="#r0"/><use x="129" y="471" xlink:href="#r0"/><use x="147" y="471" xlink:href="#r0"/><use x="183" y="471" xlink:href="#r0"/><use x="237" y="471" xlink:href="#r0"/><use x="255" y="471" xlink:href="#r0"/><use x="309" y="471" xlink:href="#r0"/><use x="327" y="471" xlink:href="#r0"/><use x="363" y="471" xlink:href="#r0"/><use x="381" y="471" xlink:href="#r0"/><use x="417" y="471" xlink:href="#r0"/><use x="471" y="471" xlink:href="#r0"/><use x="507" y="471" xlink:href="#r0"/><use x="75" y="489" xlink:href="#r0"/><use x="183" y="489" xlink:href="#r0"/><use x="219" y="489" xlink:href="#r0"/><use x="327" y="489" xlink:href="#r0"/><use x="363" y="489" xlink:href="#r0"/><use x="381" y="489" xlink:href="#r0"/><use x="399" y="489" xlink:href="#r0"/><use x="417" y="489" xlink:href="#r0"/><use x="435" y="489" xlink:href="#r0"/><use x="507" y="489" xlink:href="#r0"/><use x="75" y="507" xlink:href="#r0"/><use x="93" y="507" xlink:href="#r0"/><use x="111" y="507" xlink:href="#r0"/><use x="129" y="507" xlink:href="#r0"/><use x="147" y="507" xlink:href="#r0"/><use x="165" y="507" xlink:href="#r0"/><use x="183" y="507" xlink:href="#r0"/><use x="219" y="507" xlink:href="#r0"/><use x="237" y="507" xlink:href="#r0"/><use x="273" y="507" xlink:href="#r0"/><use x="363" y="507" xlink:href="#r0"/><use x="381" y="507" xlink:href="#r0"/><use x="399" y="507" xlink:href="#r0"/><use x="453" y="507" xlink:href="#r0"/><use x="507" y="507" xlink:href="#r0"/></svg>
